<svg xmlns="http://www.w3.org/2000/svg" width="43.451" height="39.001" viewBox="0 0 43.451 39.001">
  <path id="Subtraction_39" data-name="Subtraction 39" d="M98.637-1387.5H81.914a5.013,5.013,0,0,1-4.331-2.5l-8.365-14.5a5.01,5.01,0,0,1,0-5l8.365-14.5a5.013,5.013,0,0,1,4.331-2.5H98.637a5.013,5.013,0,0,1,4.331,2.5l8.365,14.5a5.01,5.01,0,0,1,0,5l-8.365,14.5A5.013,5.013,0,0,1,98.637-1387.5Zm-9.612-18v6h3v-6h2.25l.751-3h-3v-2.25a.751.751,0,0,1,.751-.75h2.25v-3h-2.25a3.754,3.754,0,0,0-3.75,3.749v2.25h-2.25v3Z" transform="translate(-68.55 1426.5)" fill="#f9e215"/>
</svg>
