<svg xmlns="http://www.w3.org/2000/svg" width="43.451" height="39" viewBox="0 0 43.451 39">
  <path id="Subtraction_16" data-name="Subtraction 16" d="M98.862-1387H82.138a5.014,5.014,0,0,1-4.331-2.5L69.441-1404a5.017,5.017,0,0,1,0-5l8.365-14.5a5.013,5.013,0,0,1,4.331-2.5H98.862a5.013,5.013,0,0,1,4.331,2.5l8.365,14.5a5.017,5.017,0,0,1,0,5l-8.365,14.5A5.014,5.014,0,0,1,98.862-1387Zm-8.294-27-.257,0c-1.267,0-2.549.027-3.812.068l-.229.01-.114,0-.229.008-.227.009a20.912,20.912,0,0,0-3.542.347,2.684,2.684,0,0,0-1.888,1.9,11.811,11.811,0,0,0-.293,1.871l-.014.139-.03.347-.011.14,0,.069-.01.138c-.048.732-.078,1.553-.085,2.372v.165c.007.9.044,1.812.11,2.717l.011.139.011.14a13,13,0,0,0,.313,2.079,2.686,2.686,0,0,0,1.889,1.894,20.555,20.555,0,0,0,3.542.347l.229.009.228.01.116.005.228.007c2,.069,3.829.07,3.906.07h.19c.68,0,6.684-.026,8.248-.447a2.684,2.684,0,0,0,1.888-1.9,12.94,12.94,0,0,0,.314-2.079l.012-.139.011-.14c.093-1.223.107-2.414.11-2.75v-.1c0-.406-.018-1.474-.1-2.612l-.011-.14-.029-.347-.014-.139a11.807,11.807,0,0,0-.294-1.871,2.689,2.689,0,0,0-1.888-1.9c-1.489-.4-7.054-.443-8.155-.447Zm-2.2,10.714v-6.431l5.549,3.217-5.547,3.213Z" transform="translate(-68.775 1426)" fill="#f9e215"/>
</svg>
