<svg xmlns="http://www.w3.org/2000/svg" width="37.705" height="27.381" viewBox="0 0 37.705 27.381">
  <g id="Chat_contact_group_hangout_message_icon" transform="translate(25.113 341.623)">
    <path id="Path_2" data-name="Path 2" d="M665.834,725c0,1.512,0,3.472,2.473,3.469q3.392,0,6.784,0h4.877v0A2.2,2.2,0,0,0,682,727.419a3.631,3.631,0,0,0,.44-1.9h0l0-4.132q0-3.9.006-7.79a2.48,2.48,0,0,0-2.524-2.567c-.181,0-.366,0-.551,0h-.265l-1.7,0-4.575-.009q.069-.181.152-.351a3.653,3.653,0,0,1,.8-1.076,3.24,3.24,0,0,1,.924-.593,6.624,6.624,0,0,1,1.165-.362,2.191,2.191,0,0,0,1.165-.581,1.664,1.664,0,0,0,.435-1.232l0-1.042c0-.995.008-1.992,0-2.983a1.976,1.976,0,0,0-.018-.259v0a1.646,1.646,0,0,0-.6-1.066,1.733,1.733,0,0,0-1.122-.371h0a2.145,2.145,0,0,0-.282.02,11.552,11.552,0,0,0-6.932,3.607,10.4,10.4,0,0,0-2.685,7.066q0,4.753,0,9.505v3.672h0V725Z" transform="translate(-669.855 -1042.715)" fill="#bf1e2e" fill-rule="evenodd"/>
    <path id="Path_1" data-name="Path 1" d="M1079.338,725.515l0-4.132q0-3.9.006-7.79a2.481,2.481,0,0,0-2.525-2.567c-.182,0-.366,0-.551,0h-.265l-1.7,0-4.575-.009q.069-.181.152-.351a3.652,3.652,0,0,1,.8-1.076,3.239,3.239,0,0,1,.924-.593,6.626,6.626,0,0,1,1.165-.362,2.19,2.19,0,0,0,1.165-.581,1.664,1.664,0,0,0,.434-1.232l0-1.042c0-.995.008-1.992,0-2.983a1.987,1.987,0,0,0-.018-.259v0a1.645,1.645,0,0,0-.6-1.066,1.732,1.732,0,0,0-1.122-.371h0a2.148,2.148,0,0,0-.282.02,11.552,11.552,0,0,0-6.932,3.607,10.4,10.4,0,0,0-2.685,7.066q0,4.729,0,9.458v3.719h0v.04h0c0,1.512,0,3.472,2.473,3.469q3.392,0,6.784,0h4.877v0a2.2,2.2,0,0,0,2.032-1.054,3.632,3.632,0,0,0,.44-1.9Z" transform="translate(-1087.844 -1042.717)" fill="#bf1e2e" fill-rule="evenodd"/>
  </g>
</svg>
